<svg width="16" height="16" viewBox="0 0 16 16" fill="none" xmlns="http://www.w3.org/2000/svg">
<path d="M8.2467 1.43331L14.2467 3.83329C14.48 3.92663 14.6667 4.20662 14.6667 4.45329V6.66663C14.6667 7.03329 14.3667 7.33329 14 7.33329H2.00004C1.63337 7.33329 1.33337 7.03329 1.33337 6.66663V4.45329C1.33337 4.20662 1.52004 3.92663 1.75338 3.83329L7.75338 1.43331C7.88671 1.37998 8.11337 1.37998 8.2467 1.43331Z" stroke="white" stroke-miterlimit="10" stroke-linecap="round" stroke-linejoin="round"/>
<path d="M14.6667 14.6667H1.33337V12.6667C1.33337 12.3 1.63337 12 2.00004 12H14C14.3667 12 14.6667 12.3 14.6667 12.6667V14.6667Z" stroke="white" stroke-miterlimit="10" stroke-linecap="round" stroke-linejoin="round"/>
<path d="M2.66663 11.9999V7.33325" stroke="white" stroke-miterlimit="10" stroke-linecap="round" stroke-linejoin="round"/>
<path d="M5.33337 11.9999V7.33325" stroke="white" stroke-miterlimit="10" stroke-linecap="round" stroke-linejoin="round"/>
<path d="M8 11.9999V7.33325" stroke="white" stroke-miterlimit="10" stroke-linecap="round" stroke-linejoin="round"/>
<path d="M10.6666 11.9999V7.33325" stroke="white" stroke-miterlimit="10" stroke-linecap="round" stroke-linejoin="round"/>
<path d="M13.3334 11.9999V7.33325" stroke="white" stroke-miterlimit="10" stroke-linecap="round" stroke-linejoin="round"/>
<path d="M0.666626 14.6667H15.3333" stroke="white" stroke-miterlimit="10" stroke-linecap="round" stroke-linejoin="round"/>
<path d="M8 5.66675C8.55228 5.66675 9 5.21903 9 4.66675C9 4.11446 8.55228 3.66675 8 3.66675C7.44772 3.66675 7 4.11446 7 4.66675C7 5.21903 7.44772 5.66675 8 5.66675Z" stroke="white" stroke-miterlimit="10" stroke-linecap="round" stroke-linejoin="round"/>
</svg>
