<svg width="16" height="16" viewBox="0 0 16 16" fill="none" xmlns="http://www.w3.org/2000/svg">
<path d="M11.9999 5.27318C11.9799 5.27318 11.9666 5.27318 11.9466 5.27318H11.9133C10.6533 5.23318 9.71326 4.25985 9.71326 3.05984C9.71326 1.83318 10.7133 0.839844 11.9333 0.839844C13.1533 0.839844 14.1533 1.83984 14.1533 3.05984C14.1466 4.26651 13.2066 5.23985 12.0066 5.27985C12.0066 5.27318 12.0066 5.27318 11.9999 5.27318ZM11.9333 1.83318C11.2599 1.83318 10.7133 2.37985 10.7133 3.05318C10.7133 3.71318 11.2266 4.24652 11.8866 4.27318C11.8933 4.26652 11.9466 4.26652 12.0066 4.27318C12.6533 4.23985 13.1533 3.70652 13.1599 3.05318C13.1599 2.37985 12.6133 1.83318 11.9333 1.83318Z" fill="white"/>
<path d="M12.0066 10.1866C11.7466 10.1866 11.4866 10.1666 11.2266 10.1199C10.9533 10.0733 10.7733 9.81327 10.82 9.53994C10.8666 9.2666 11.1266 9.0866 11.4 9.13327C12.22 9.27327 13.0866 9.11994 13.6666 8.73327C13.98 8.52661 14.1466 8.2666 14.1466 8.0066C14.1466 7.7466 13.9733 7.49327 13.6666 7.2866C13.0866 6.89993 12.2066 6.7466 11.38 6.89327C11.1066 6.9466 10.8466 6.75993 10.8 6.4866C10.7533 6.21327 10.9333 5.95327 11.2066 5.9066C12.2933 5.71327 13.42 5.91993 14.22 6.45327C14.8066 6.8466 15.1466 7.4066 15.1466 8.0066C15.1466 8.59993 14.8133 9.16661 14.22 9.56661C13.6133 9.96661 12.8266 10.1866 12.0066 10.1866Z" fill="white"/>
<path d="M3.97995 5.27325C3.97328 5.27325 3.96661 5.27325 3.96661 5.27325C2.76661 5.23325 1.82661 4.25992 1.81995 3.05992C1.81995 1.83325 2.81995 0.833252 4.03995 0.833252C5.25995 0.833252 6.25995 1.83325 6.25995 3.05325C6.25995 4.25992 5.31995 5.23325 4.11995 5.27325L3.97995 4.77325L4.02661 5.27325C4.01328 5.27325 3.99328 5.27325 3.97995 5.27325ZM4.04661 4.27325C4.08661 4.27325 4.11995 4.27325 4.15995 4.27992C4.75328 4.25325 5.27328 3.71992 5.27328 3.05992C5.27328 2.38658 4.72661 1.83992 4.05328 1.83992C3.37995 1.83992 2.83328 2.38658 2.83328 3.05992C2.83328 3.71325 3.33995 4.23992 3.98661 4.27992C3.99328 4.27325 4.01995 4.27325 4.04661 4.27325Z" fill="white"/>
<path d="M3.97337 10.1866C3.15337 10.1866 2.36671 9.96661 1.76004 9.56661C1.17337 9.17327 0.833374 8.6066 0.833374 8.0066C0.833374 7.41327 1.17337 6.8466 1.76004 6.45327C2.56004 5.91993 3.68671 5.71327 4.77337 5.9066C5.04671 5.95327 5.22671 6.21327 5.18004 6.4866C5.13337 6.75993 4.87337 6.9466 4.60004 6.89327C3.77338 6.7466 2.90004 6.89993 2.31337 7.2866C2.00004 7.49327 1.83337 7.7466 1.83337 8.0066C1.83337 8.2666 2.00671 8.52661 2.31337 8.73327C2.89337 9.11994 3.76004 9.27327 4.58004 9.13327C4.85337 9.0866 5.11338 9.27327 5.16004 9.53994C5.20671 9.81327 5.02671 10.0733 4.75337 10.1199C4.49337 10.1666 4.23337 10.1866 3.97337 10.1866Z" fill="white"/>
<path d="M7.99992 10.2532C7.97992 10.2532 7.96659 10.2532 7.94659 10.2532H7.91326C6.65326 10.2132 5.71326 9.23983 5.71326 8.03983C5.71326 6.81316 6.71326 5.81982 7.93326 5.81982C9.15326 5.81982 10.1533 6.81983 10.1533 8.03983C10.1466 9.24649 9.20659 10.2198 8.00659 10.2598C8.00659 10.2532 8.00659 10.2532 7.99992 10.2532ZM7.93326 6.81316C7.25992 6.81316 6.71326 7.35983 6.71326 8.03316C6.71326 8.69316 7.22659 9.2265 7.88659 9.25316C7.89326 9.2465 7.94659 9.2465 8.00659 9.25316C8.65326 9.21983 9.15326 8.6865 9.15992 8.03316C9.15992 7.3665 8.61326 6.81316 7.93326 6.81316Z" fill="white"/>
<path d="M7.99982 15.1732C7.19982 15.1732 6.39982 14.9666 5.77982 14.5466C5.19315 14.1532 4.85315 13.5932 4.85315 12.9932C4.85315 12.3999 5.18648 11.8266 5.77982 11.4332C7.02648 10.6066 8.97982 10.6066 10.2198 11.4332C10.8065 11.8266 11.1465 12.3866 11.1465 12.9866C11.1465 13.5799 10.8132 14.1532 10.2198 14.5466C9.59982 14.9599 8.79982 15.1732 7.99982 15.1732ZM6.33315 12.2732C6.01982 12.4799 5.85315 12.7399 5.85315 12.9999C5.85315 13.2599 6.02648 13.5132 6.33315 13.7199C7.23315 14.3266 8.75982 14.3266 9.65982 13.7199C9.97315 13.5132 10.1398 13.2532 10.1398 12.9932C10.1398 12.7332 9.96649 12.4799 9.65982 12.2732C8.76648 11.6666 7.23982 11.6732 6.33315 12.2732Z" fill="white"/>
</svg>
